<svg id="Layer_1" enable-background="new 0 0 75 75" viewBox="0 0 75 75" xmlns="http://www.w3.org/2000/svg"><g id="Empty_Files"><path d="m65.5961914 9.2684574c-2.6033325-2.5582275-6.4940796-3.4451904-9.9574585-2.2496338-4.9671211 1.717103-7.6658707 7.0567493-6.0675659 12.0905762-1.2626724.3981495-2.6528091 1.0744724-3.8098755 1.7182617-3.1068115-8.4897461-8.7300415-10.6282959-10.1723633-11.0441894-.3902435-.1049395-.825592-.1001244-.7250977-.09375-4.0933228.085083-8.0604858.5012207-11.7966309 1.2347412-6.777771-.5108643-11.8074961.3435059-14.8396006 1.1549072-1.6634707.4537792-2.260067 2.3749065-1.4277344 3.6865234.2037354.3305664.3861694.6551514.5570068.9688721-.5522461.3295898-1.0794678.6578369-1.5462646.9783936-1.3991137.9549332-1.3835959 2.9424629-.1425781 3.953125 1.8200073 1.4838867 3.4474487 3.2912598 4.973877 5.5097656.6239071 4.3769226.6092529 8.0760059.5593262 11.9658222-.1391602 10.6318359-.3491211 26.6992149 11.3808603 28.6083946 6.086483 1.0105133 12.2047272.9502945 16.9257813.1601563.4351616-.0709457.3108597-.0398483.4277344-.0732422l.0004883.0029297c1.934082-.3115234 3.7607422-.6044922 4.8969727-1.0927734 0-.0009766 0-.0009766.0004883-.0009766 2.7720833-1.1938019 3.6161423-5.0798111 1.8620605-7.1098595 3.5142899-1.3364182 7.2360573-3.1952095 10.3063965-5.3666992 1.883976-1.2940254 1.3512001-4.1792946-.8789063-4.8007813-6.3973083-1.8093491-8.4820061-9.9796753-8.2880859-16.5292969-.1124878-4.2973652-.7127075-7.8020039-1.590332-10.6709003 1.1039276-.6306839 2.6791801-1.4024391 3.8901367-1.7657471.8133545 1.6365967 2.0664673 3.0198975 3.6305542 3.9726563 4.6965294 4.6204777 12.6003494 3.3044319 15.5061646-2.6776123 2.2326354-4.5963287.4993667-9.9768658-3.6753541-12.5296631zm-56.977479 4.2591553c2.0488281-.5478516 5.0512695-1.1171875 8.9345713-1.2363281-3.2840281.9961319-6.4040585 2.3171024-8.8964853 3.6904297-.1757813-.3203125-.3730469-.6669922-.5854492-1.0107422-.3135462-.4952832-.0984083-1.2676649.5473632-1.4433594zm35.6210947 51.841795c-1.3058853.5617447-4.3930016.9339981-4.7045898 1.0195313-5.48349.70755-10.2080402.9626541-16.7094727-.1191406-10.4565439-1.7011719-10.2568369-16.9912071-10.125001-27.1083946.0398808-3.0020943.0677338-5.6294365-.2125244-8.9888935 4.484601 8.0978222 5.4695921 15.6119785 9.1550913 22.9337177 3.2177792 6.3986778 7.6652184 10.5554581 14.7532349 9.3530273 2.5736389-.448288 6.1557083-1.3299103 8.6972656-2.2324219 1.6788979.97966 1.1938172 4.2605323-.8540039 5.1425743zm2.0961914-32.324215c-.0229492.6152344-.4477539 15.0878906 9.3818359 17.8681641.9874802.2740669 1.284874 1.5395927.4326172 2.1220703-.4193611.2508774-4.7946091 3.533287-12.0255127 5.9342041-.0043335.0001221-.0082397-.0018311-.0125732-.0015869-4.8061523.1914063-6.7026367-1.5039063-8.0385742-3.3613281-.6049805-.8398438-1.8178711-.8154297-2.5961914-.3095703-1.7904663 1.1611328-4.0422363 1.9628906-6.8643799 2.4543457-8.1534176-8.5080757-7.6974335-27.2271214-19.9974365-37.2473145-.4787874-.3914623-.513114-1.1743298.0419922-1.5537109 7.8397446-5.3729553 18.6370773-7.5609026 28.2216797-7.7607422.1074219 0 .2158203.0146484.3081055.0390625 1.305603.376709 6.4412231 2.3483887 9.2704468 10.376709-2.4802246 1.574707-4.6942749 3.5510254-6.5258179 5.8674316-5.4417953-.8560123-10.2984905 5.0292454-11.3857422 10.7089863-.0776367.40625.1889648.7998047.5957031.8769531.3907967.0797539.7979698-.1783295.8779297-.5957031.4560547-2.3837891 1.5361328-4.6152344 3.1235352-6.453125 1.6904297-1.9580097 3.8076172-3.0927753 5.7583008-3.1123066-1.7298203 2.7472477-.89991 5.0553112.609375 5.9062519 1.3847656.7792969 3.3256836.1914063 4.1533203-1.2617188.9967728-1.7507629.3522949-4.4184303-2.1811523-5.6005878 1.5671997-1.8867188 3.4068604-3.5244141 5.4480591-4.8657227 1.377529 4.7521782 1.3346594 9.1618882 1.4044798 9.9692383zm-7.8061523-3.8779316c1.9243851.6997757 2.4684601 2.5136471 1.8310547 3.6328144-.418457.7363281-1.4438477 1.0722656-2.1132813.6972656-.8451042-.4767913-1.4189987-1.9712238.2822266-4.33008zm12.5297851-10.3066406c-1.4813118-4.2842827.7840996-8.9425364 5.0693359-10.4238281 2.9560547-1.0214844 6.2885742-.2509766 8.4887695 1.9628906 4.2503967 4.2788305 2.5681534 11.559063-3.1342773 13.5302734-4.1728248 1.4395218-8.898857-.6573486-10.4238281-5.0693359z"/><path d="m54.706604 20.5061283c.301506.2862797.7761841.2715683 1.0600586-.0273438l3.1380005-3.3071289 3.7199097 2.637207c.3382568.2389183.8060684.1590881 1.0454102-.1787109.2397461-.3378906.159668-.8056641-.1782227-1.0458984l-3.5436401-2.512207 2.9899292-3.1508789c.2851563-.3007813.2729492-.7753906-.027832-1.0605469-.300293-.2851563-.7753906-.2734375-1.0600586.0273438l-3.1385498 3.3076172-3.7193604-2.6367188c-.3369141-.2373047-.8056641-.1591797-1.0454102.1787109s-.159668.8056641.1782227 1.0458984l3.5430908 2.5117188-2.9893799 3.1503906c-.2851563.3007813-.2729492.7753907.027832 1.0605469z"/></g></svg>